Coordinates
version=1
nRows=9
nColumns=38
inDegrees=yes

Units are S.I. units (second, meters, Newtons, ...)
Angles are in degrees.

endheader
time	pelvis_tilt	pelvis_list	pelvis_rotation	pelvis_tx	pelvis_ty	pelvis_tz	hip_flexion_r	hip_adduction_r	hip_rotation_r	knee_angle_r	ankle_angle_r	subtalar_angle_r	mtp_angle_r	hip_flexion_l	hip_adduction_l	hip_rotation_l	knee_angle_l	ankle_angle_l	subtalar_angle_l	mtp_angle_l	lumbar_extension	lumbar_bending	lumbar_rotation	arm_flex_r	arm_add_r	arm_rot_r	elbow_flex_r	pro_sup_r	wrist_flex_r	wrist_dev_r	arm_flex_l	arm_add_l	arm_rot_l	elbow_flex_l	pro_sup_l	wrist_flex_l	wrist_dev_l
      1.95000000	     -1.91056690	     -1.68076213	      4.34402811	      0.75521128	      0.91918659	     -0.31178079	     26.57754022	      2.66893296	     -7.98451293	    -12.74614756	      5.19234838	     -6.11538453	      0.00000000	    -13.70567953	     -1.44862284	     -1.44165638	    -18.70569847	      9.38821897	      2.37299813	      0.00000000	     -6.24906675	      2.59665283	     -9.26477096	    -16.27818596	     -9.94330088	     44.31414954	     19.12962281	     44.32647637	      0.00000000	      0.00000000	     10.45368183	    -16.38782332	     15.49910223	     68.58083112	     44.32647637	      0.00000000	      0.00000000
      1.96000000	     -1.76496581	     -1.94130699	      4.16639435	      0.77017185	      0.91839637	     -0.31022776	     27.05938822	      2.82803139	     -9.57800538	    -14.86559661	      1.67411874	     -6.41600272	      0.00000000	    -13.99075231	     -1.95708197	     -1.80356606	    -20.04114115	      7.83434719	      2.78476360	      0.00000000	     -6.24004645	      2.94255322	     -9.05096148	    -16.56794673	    -10.07427935	     44.30519162	     19.07214524	     44.32969741	      0.00000000	      0.00000000	     10.49033520	    -16.40127474	     15.38297824	     69.12617633	     44.32969741	      0.00000000	      0.00000000
      1.97000000	     -1.88115264	     -2.87478987	      4.01474070	      0.78486789	      0.91768284	     -0.30797305	     27.38162198	      3.96115047	     -9.37703597	    -16.04845872	     -1.24423814	     -9.28106022	      0.00000000	    -13.39590575	     -3.47163211	     -3.11678341	    -22.41738939	      6.91954582	      5.00007339	      0.00000000	     -5.97494313	      3.94137606	     -9.04362436	    -16.69546214	    -10.35427026	     44.05478416	     19.40744963	     44.39590546	      0.00000000	      0.00000000	      8.61467387	    -15.80645590	     12.28504174	     73.68640641	     44.39590546	      0.00000000	      0.00000000
      1.98000000	     -1.79974728	     -3.50332200	      3.72379478	      0.79987660	      0.91787640	     -0.30592673	     27.32853794	      4.67641747	     -9.72232392	    -17.45769375	     -2.73934188	     -9.44797263	      0.00000000	    -13.25986363	     -4.36008175	     -3.73877690	    -24.18646985	      4.60827218	      4.90741994	      0.00000000	     -5.90434448	      4.64062826	     -8.67082646	    -16.68439035	    -10.48384397	     44.03293816	     19.38185418	     44.39934795	      0.00000000	      0.00000000	      8.48504800	    -15.61069953	     12.29613528	     73.82851582	     44.39934795	      0.00000000	      0.00000000
      1.99000000	     -1.70392648	     -4.28667180	      3.42275162	      0.81486044	      0.91861422	     -0.30392422	     27.14659366	      5.58486518	     -9.76439466	    -18.87337454	     -3.63306562	     -9.81155480	      0.00000000	    -12.89392311	     -5.46961297	     -4.72899508	    -26.29598977	      1.88065320	      4.71636956	      0.00000000	     -5.85556591	      5.54863786	     -8.36783647	    -16.51819570	    -10.64589455	     44.00893052	     19.39222441	     44.40290161	      0.00000000	      0.00000000	      8.17002201	    -15.34078494	     12.32190842	     74.02203003	     44.40290161	      0.00000000	      0.00000000
      2.00000000	     -1.53201977	     -5.19208164	      3.13325918	      0.82971681	      0.91994675	     -0.30212105	     26.88643666	      6.69178535	     -9.45855323	    -20.21559251	     -3.67397411	    -10.31194287	      0.00000000	    -12.33916678	     -6.74352009	     -5.60694567	    -28.66316837	     -1.32537746	      4.45925381	      0.00000000	     -5.93880061	      6.63318082	     -8.08879169	    -16.17294924	    -10.85408033	     43.98972943	     19.47022465	     44.40775092	      0.00000000	      0.00000000	      7.67313673	    -15.00385673	     12.29899364	     74.29781050	     44.40775092	      0.00000000	      0.00000000
      2.01000000	     -1.28228836	     -5.87195487	      2.86347137	      0.84432473	      0.92133409	     -0.30043344	     26.47221100	      7.76549284	     -8.47816183	    -21.46705640	     -3.50622292	    -11.82731190	      0.00000000	    -11.67481054	     -7.69110886	     -6.04007961	    -31.20027136	     -5.07581324	      3.30145341	      0.00000000	     -6.19700298	      7.44619407	     -7.89569998	    -15.70988138	    -11.16480215	     44.11875153	     20.00120883	     44.44085912	      0.00000000	      0.00000000	      6.54867345	    -14.46689859	     11.10752494	     75.69525191	     44.44085912	      0.00000000	      0.00000000
      2.02000000	     -1.11143285	     -6.29687952	      2.62838442	      0.85859236	      0.92255956	     -0.29886647	     26.12452208	      8.58739873	     -7.58287857	    -22.82762320	     -2.90823517	    -12.74356533	      0.00000000	    -10.63089984	     -8.41519692	     -6.31621159	    -34.05653136	     -9.46417967	      2.24080713	      0.00000000	     -6.39830242	      7.96278503	     -7.68235261	    -15.08755383	    -11.30077716	     44.18058571	     20.31073694	     44.45653984	      0.00000000	      0.00000000	      6.02618729	    -14.22992602	     11.02442039	     75.89347853	     44.45653984	      0.00000000	      0.00000000
      2.03000000	     -0.92147646	     -6.68058480	      2.40402488	      0.87266054	      0.92368953	     -0.29728507	     25.55844788	      9.36867868	     -6.87116702	    -23.89930530	     -1.79361065	    -13.08041738	      0.00000000	     -9.47459825	     -9.26416605	     -6.84946890	    -37.07010553	    -13.15337551	      2.02995716	      0.00000000	     -6.63769465	      8.41439701	     -7.37286099	    -14.43682404	    -11.34139530	     44.18873194	     20.51568523	     44.46025117	      0.00000000	      0.00000000	      5.60612973	    -13.90843327	     11.16450060	     75.87295134	     44.46025117	      0.00000000	      0.00000000
